<svg xmlns="http://www.w3.org/2000/svg" version="1.1" xmlns:xlink="http://www.w3.org/1999/xlink" width="512" height="512" x="0" y="0" viewBox="0 0 24 24" style="enable-background:new 0 0 512 512" xml:space="preserve" class=""><g><path d="M23.121.879a3.002 3.002 0 0 0-4.242 0l-6.707 6.707A3.971 3.971 0 0 0 11 10.414V12a1 1 0 0 0 1 1h1.586a3.975 3.975 0 0 0 2.828-1.172l6.707-6.707c1.164-1.117 1.164-3.126 0-4.243zm-1.414 2.828L15 10.414c-.378.378-.88.586-1.414.586H13v-.586c0-.526.214-1.042.586-1.414l6.707-6.707a1 1 0 0 1 1.414 0 1.004 1.004 0 0 1 0 1.414zM12 18a1 1 0 1 1 0-2h3a1 1 0 1 1 0 2zm8-4v5c0 2.757-2.243 5-5 5H5c-2.757 0-5-2.243-5-5V5c0-2.757 2.243-5 5-5h9a1 1 0 1 1 0 2H5C3.346 2 2 3.346 2 5v14c0 1.654 1.346 3 3 3h10c1.654 0 3-1.346 3-3v-5a1 1 0 1 1 2 0zM9.167 11.667 7.48 13.354a2.2 2.2 0 0 1-3.052.066l-.669-.579a1.001 1.001 0 0 1 1.31-1.512l.689.598c.103.093.228.092.307.013l1.687-1.687a.999.999 0 1 1 1.414 1.414zm0-4.96L7.48 8.394a2.2 2.2 0 0 1-3.052.066l-.669-.579a1.001 1.001 0 0 1 1.31-1.512l.689.598c.103.094.228.092.307.013l1.687-1.687a.999.999 0 1 1 1.414 1.414zm0 8.546a.999.999 0 0 1 0 1.414L7.48 18.354a2.2 2.2 0 0 1-3.052.066l-.669-.579a1.001 1.001 0 0 1 1.31-1.512l.689.598c.103.093.228.092.307.013l1.687-1.687a.999.999 0 0 1 1.414 0z" fill="#5743b4" opacity="1" data-original="#000000" class=""></path></g></svg>